<?xml version="1.0" encoding="UTF-8" standalone="no"?>
<!DOCTYPE svg PUBLIC "-//W3C//DTD SVG 1.1//EN"
 "http://www.w3.org/Graphics/SVG/1.1/DTD/svg11.dtd">
<!-- Generated by graphviz version 2.40.1 (20161225.0304)
 -->
<!-- Title: G Pages: 1 -->
<svg width="1197pt" height="546pt"
 viewBox="0.00 0.00 1197.13 546.00" xmlns="http://www.w3.org/2000/svg" xmlns:xlink="http://www.w3.org/1999/xlink">
<g id="graph0" class="graph" transform="scale(1 1) rotate(0) translate(4 542)">
<title>G</title>
<polygon fill="#ffffff" stroke="transparent" points="-4,4 -4,-542 1193.1345,-542 1193.1345,4 -4,4"/>
<!-- A0 -->
<g id="node1" class="node">
<title>A0</title>
<polygon fill="#00ff00" stroke="#000000" points="58.5118,-502 .1622,-502 .1622,-466 64.5118,-466 64.5118,-496 58.5118,-502"/>
<polyline fill="none" stroke="#000000" points="58.5118,-502 58.5118,-496 "/>
<polyline fill="none" stroke="#000000" points="64.5118,-496 58.5118,-496 "/>
<text text-anchor="middle" x="32.337" y="-481" font-family="Helvetica,sans-Serif" font-size="10.00" fill="#ffffff">Abstract</text>
</g>
<!-- A1 -->
<g id="node2" class="node">
<title>A1</title>
<polygon fill="none" stroke="#000000" points="82.337,-500 82.337,-532 248.337,-532 248.337,-500 82.337,-500"/>
<text text-anchor="start" x="92.255" y="-513" font-family="Helvetica,sans-Serif" font-size="10.00" fill="#000000">PaymentDetectorBase{bg:green}</text>
<polygon fill="none" stroke="#000000" points="82.337,-468 82.337,-500 248.337,-500 248.337,-468 82.337,-468"/>
<text text-anchor="start" x="123.664" y="-481" font-family="Helvetica,sans-Serif" font-size="10.00" fill="#000000">paymentNetworkId</text>
<polygon fill="none" stroke="#000000" points="82.337,-436 82.337,-468 248.337,-468 248.337,-436 82.337,-436"/>
<text text-anchor="start" x="120.3255" y="-449" font-family="Helvetica,sans-Serif" font-size="10.00" fill="#000000">getBalance(request)</text>
</g>
<!-- A2 -->
<g id="node3" class="node">
<title>A2</title>
<polygon fill="none" stroke="#000000" points="266.337,-494 266.337,-526 482.337,-526 482.337,-494 266.337,-494"/>
<text text-anchor="start" x="276.2545" y="-507" font-family="Helvetica,sans-Serif" font-size="10.00" fill="#000000">DeclarativePaymentDetectorBase{bg:green}</text>
<polygon fill="none" stroke="#000000" points="266.337,-474 266.337,-494 482.337,-494 482.337,-474 266.337,-474"/>
<polygon fill="none" stroke="#000000" points="266.337,-442 266.337,-474 482.337,-474 482.337,-442 266.337,-442"/>
<text text-anchor="start" x="307.104" y="-455" font-family="Helvetica,sans-Serif" font-size="10.00" fill="#000000">getDeclarativeEvents(request)</text>
</g>
<!-- A3 -->
<g id="node4" class="node">
<title>A3</title>
<polygon fill="none" stroke="#000000" points="500.337,-506 500.337,-538 678.337,-538 678.337,-506 500.337,-506"/>
<text text-anchor="start" x="510.1415" y="-519" font-family="Helvetica,sans-Serif" font-size="10.00" fill="#000000">ReferenceBasedDetector{bg:green}</text>
<polygon fill="none" stroke="#000000" points="500.337,-486 500.337,-506 678.337,-506 678.337,-486 500.337,-486"/>
<polygon fill="none" stroke="#000000" points="500.337,-430 500.337,-486 678.337,-486 678.337,-430 500.337,-430"/>
<text text-anchor="start" x="539.0505" y="-467" font-family="Helvetica,sans-Serif" font-size="10.00" fill="#000000">extractEvents(request)</text>
<text text-anchor="start" x="529.603" y="-455" font-family="Helvetica,sans-Serif" font-size="10.00" fill="#000000">getPaymentChain(request)</text>
<text text-anchor="start" x="519.5995" y="-443" font-family="Helvetica,sans-Serif" font-size="10.00" fill="#000000">getPaymentReference(request)</text>
</g>
<!-- A4 -->
<g id="node5" class="node">
<title>A4</title>
<polygon fill="#00ff00" stroke="#000000" points="660.87,-122 457.804,-122 457.804,-86 660.87,-86 660.87,-122"/>
<text text-anchor="middle" x="559.337" y="-101" font-family="Helvetica,sans-Serif" font-size="10.00" fill="#ffffff">ERC20FeeProxyPaymentDetectorBase</text>
</g>
<!-- A16 -->
<g id="node17" class="node">
<title>A16</title>
<polygon fill="none" stroke="#000000" points="451.6954,-36 284.9786,-36 284.9786,0 451.6954,0 451.6954,-36"/>
<text text-anchor="middle" x="368.337" y="-15" font-family="Helvetica,sans-Serif" font-size="10.00" fill="#000000">AnyToERC20PaymentDetector</text>
</g>
<!-- A4&#45;&gt;A16 -->
<g id="edge10" class="edge">
<title>A4&#45;&gt;A16</title>
<path fill="none" stroke="#000000" d="M509.8028,-81.6967C478.2294,-67.4803 437.8532,-49.3005 408.3241,-36.0047"/>
<polygon fill="none" stroke="#000000" points="508.7418,-85.0573 519.2971,-85.9716 511.6158,-78.6745 508.7418,-85.0573"/>
</g>
<!-- A17 -->
<g id="node18" class="node">
<title>A17</title>
<polygon fill="none" stroke="#000000" points="649.5832,-36 469.0908,-36 469.0908,0 649.5832,0 649.5832,-36"/>
<text text-anchor="middle" x="559.337" y="-15" font-family="Helvetica,sans-Serif" font-size="10.00" fill="#000000">ERC20FeeProxyPaymentDetector</text>
</g>
<!-- A4&#45;&gt;A17 -->
<g id="edge12" class="edge">
<title>A4&#45;&gt;A17</title>
<path fill="none" stroke="#000000" d="M559.337,-75.4762C559.337,-62.5329 559.337,-47.6086 559.337,-36.2121"/>
<polygon fill="none" stroke="#000000" points="555.8371,-75.7616 559.337,-85.7616 562.8371,-75.7616 555.8371,-75.7616"/>
</g>
<!-- A5 -->
<g id="node6" class="node">
<title>A5</title>
<polygon fill="#00ff00" stroke="#000000" points="648.0892,-380 502.5848,-380 502.5848,-344 648.0892,-344 648.0892,-380"/>
<text text-anchor="middle" x="575.337" y="-359" font-family="Helvetica,sans-Serif" font-size="10.00" fill="#ffffff">BtcAddressBasedDetector</text>
</g>
<!-- A13 -->
<g id="node14" class="node">
<title>A13</title>
<polygon fill="none" stroke="#000000" points="467.6521,-294 287.0219,-294 287.0219,-258 467.6521,-258 467.6521,-294"/>
<text text-anchor="middle" x="377.337" y="-273" font-family="Helvetica,sans-Serif" font-size="10.00" fill="#000000">BtcMainnetAddressBasedDetector</text>
</g>
<!-- A5&#45;&gt;A13 -->
<g id="edge7" class="edge">
<title>A5&#45;&gt;A13</title>
<path fill="none" stroke="#000000" d="M524.4102,-339.8803C491.6179,-325.6371 449.5329,-307.3578 418.7896,-294.0047"/>
<polygon fill="none" stroke="#000000" points="523.2632,-343.1979 533.8297,-343.9716 526.0519,-336.7774 523.2632,-343.1979"/>
</g>
<!-- A14 -->
<g id="node15" class="node">
<title>A14</title>
<polygon fill="none" stroke="#000000" points="664.4335,-294 486.2405,-294 486.2405,-258 664.4335,-258 664.4335,-294"/>
<text text-anchor="middle" x="575.337" y="-273" font-family="Helvetica,sans-Serif" font-size="10.00" fill="#000000">BtcTestnetAddressBasedDetector</text>
</g>
<!-- A5&#45;&gt;A14 -->
<g id="edge8" class="edge">
<title>A5&#45;&gt;A14</title>
<path fill="none" stroke="#000000" d="M575.337,-333.4762C575.337,-320.5329 575.337,-305.6086 575.337,-294.2121"/>
<polygon fill="none" stroke="#000000" points="571.8371,-333.7616 575.337,-343.7616 578.8371,-333.7616 571.8371,-333.7616"/>
</g>
<!-- A6 -->
<g id="node7" class="node">
<title>A6</title>
<polygon fill="none" stroke="#000000" points="843.337,-494 843.337,-526 1038.337,-526 1038.337,-494 843.337,-494"/>
<text text-anchor="start" x="853.028" y="-507" font-family="Helvetica,sans-Serif" font-size="10.00" fill="#000000">FeeReferenceBasedDetector{bg:green}</text>
<polygon fill="none" stroke="#000000" points="843.337,-474 843.337,-494 1038.337,-494 1038.337,-474 843.337,-474"/>
<polygon fill="none" stroke="#000000" points="843.337,-442 843.337,-474 1038.337,-474 1038.337,-442 843.337,-442"/>
<text text-anchor="start" x="887.212" y="-455" font-family="Helvetica,sans-Serif" font-size="10.00" fill="#000000">getFeeBalance(request)</text>
</g>
<!-- A7 -->
<g id="node8" class="node">
<title>A7</title>
<polygon fill="#00ff00" stroke="#000000" points="804.244,-122 692.43,-122 692.43,-86 804.244,-86 804.244,-122"/>
<text text-anchor="middle" x="748.337" y="-101" font-family="Helvetica,sans-Serif" font-size="10.00" fill="#ffffff">AnyToAnyDetector</text>
</g>
<!-- A19 -->
<g id="node20" class="node">
<title>A19</title>
<polygon fill="none" stroke="#000000" points="859.261,-36 667.413,-36 667.413,0 859.261,0 859.261,-36"/>
<text text-anchor="middle" x="763.337" y="-15" font-family="Helvetica,sans-Serif" font-size="10.00" fill="#000000">AnyToEthFeeProxyPaymentDetector</text>
</g>
<!-- A7&#45;&gt;A19 -->
<g id="edge14" class="edge">
<title>A7&#45;&gt;A19</title>
<path fill="none" stroke="#000000" d="M753.2445,-75.8639C755.5175,-62.8318 758.1528,-47.7226 760.1605,-36.2121"/>
<polygon fill="none" stroke="#000000" points="749.7885,-75.3089 751.5181,-85.7616 756.6844,-76.5117 749.7885,-75.3089"/>
</g>
<!-- A8 -->
<g id="node9" class="node">
<title>A8</title>
<polygon fill="none" stroke="#000000" points="824.361,-502 696.313,-502 696.313,-466 824.361,-466 824.361,-502"/>
<text text-anchor="middle" x="760.337" y="-481" font-family="Helvetica,sans-Serif" font-size="10.00" fill="#000000">PaymentDetectorBase</text>
</g>
<!-- A8&#45;&gt;A5 -->
<g id="edge6" class="edge">
<title>A8&#45;&gt;A5</title>
<path fill="none" stroke="#000000" d="M729.0385,-459.8739C716.2905,-450.305 701.2941,-439.3708 687.337,-430 660.708,-412.1212 629.4362,-393.3085 606.7141,-380.0144"/>
<polygon fill="none" stroke="#000000" points="726.9694,-462.6973 737.0575,-465.9347 731.1902,-457.1129 726.9694,-462.6973"/>
</g>
<!-- A9 -->
<g id="node10" class="node">
<title>A9</title>
<polygon fill="none" stroke="#000000" points="849.362,-380 671.312,-380 671.312,-344 849.362,-344 849.362,-380"/>
<text text-anchor="middle" x="760.337" y="-359" font-family="Helvetica,sans-Serif" font-size="10.00" fill="#000000">DeclarativePaymentDetectorBase</text>
</g>
<!-- A8&#45;&gt;A9 -->
<g id="edge1" class="edge">
<title>A8&#45;&gt;A9</title>
<path fill="none" stroke="#000000" d="M760.337,-455.6871C760.337,-432.3731 760.337,-400.0186 760.337,-380.0754"/>
<polygon fill="none" stroke="#000000" points="756.8371,-455.9984 760.337,-465.9985 763.8371,-455.9985 756.8371,-455.9984"/>
</g>
<!-- A15 -->
<g id="node16" class="node">
<title>A15</title>
<polygon fill="none" stroke="#000000" points="1069.8206,-380 866.8534,-380 866.8534,-344 1069.8206,-344 1069.8206,-380"/>
<text text-anchor="middle" x="968.337" y="-359" font-family="Helvetica,sans-Serif" font-size="10.00" fill="#000000">ERC20AddressBasedPaymentDetector</text>
</g>
<!-- A8&#45;&gt;A15 -->
<g id="edge9" class="edge">
<title>A8&#45;&gt;A15</title>
<path fill="none" stroke="#000000" d="M791.1543,-459.8014C804.1547,-450.049 819.6555,-439.0013 834.337,-430 865.029,-411.1825 901.57,-392.8926 928.7354,-380.0297"/>
<polygon fill="none" stroke="#000000" points="788.8536,-457.1537 783.0059,-465.9887 793.0868,-462.7287 788.8536,-457.1537"/>
</g>
<!-- A10 -->
<g id="node11" class="node">
<title>A10</title>
<polygon fill="none" stroke="#000000" points="838.0752,-294 682.5988,-294 682.5988,-258 838.0752,-258 838.0752,-294"/>
<text text-anchor="middle" x="760.337" y="-273" font-family="Helvetica,sans-Serif" font-size="10.00" fill="#000000">DeclarativePaymentDetector</text>
</g>
<!-- A9&#45;&gt;A10 -->
<g id="edge2" class="edge">
<title>A9&#45;&gt;A10</title>
<path fill="none" stroke="#000000" d="M760.337,-333.4762C760.337,-320.5329 760.337,-305.6086 760.337,-294.2121"/>
<polygon fill="none" stroke="#000000" points="756.8371,-333.7616 760.337,-343.7616 763.8371,-333.7616 756.8371,-333.7616"/>
</g>
<!-- A11 -->
<g id="node12" class="node">
<title>A11</title>
<polygon fill="none" stroke="#000000" points="996.5882,-294 856.0858,-294 856.0858,-258 996.5882,-258 996.5882,-294"/>
<text text-anchor="middle" x="926.337" y="-273" font-family="Helvetica,sans-Serif" font-size="10.00" fill="#000000">ReferenceBasedDetector</text>
</g>
<!-- A9&#45;&gt;A11 -->
<g id="edge3" class="edge">
<title>A9&#45;&gt;A11</title>
<path fill="none" stroke="#000000" d="M804.099,-339.3281C831.4328,-325.1672 866.141,-307.1859 891.5838,-294.0047"/>
<polygon fill="none" stroke="#000000" points="802.4052,-336.2638 795.136,-343.9716 805.6253,-342.4792 802.4052,-336.2638"/>
</g>
<!-- A12 -->
<g id="node13" class="node">
<title>A12</title>
<polygon fill="none" stroke="#000000" points="827.3157,-208 669.3583,-208 669.3583,-172 827.3157,-172 827.3157,-208"/>
<text text-anchor="middle" x="748.337" y="-187" font-family="Helvetica,sans-Serif" font-size="10.00" fill="#000000">FeeReferenceBasedDetector</text>
</g>
<!-- A11&#45;&gt;A12 -->
<g id="edge4" class="edge">
<title>A11&#45;&gt;A12</title>
<path fill="none" stroke="#000000" d="M879.7933,-253.5126C850.4256,-239.3237 813.0031,-221.2432 785.6025,-208.0047"/>
<polygon fill="none" stroke="#000000" points="878.4956,-256.7727 889.0224,-257.9716 881.5408,-250.4698 878.4956,-256.7727"/>
</g>
<!-- A18 -->
<g id="node19" class="node">
<title>A18</title>
<polygon fill="none" stroke="#000000" points="1007.856,-208 844.818,-208 844.818,-172 1007.856,-172 1007.856,-208"/>
<text text-anchor="middle" x="926.337" y="-187" font-family="Helvetica,sans-Serif" font-size="10.00" fill="#000000">ERC20ProxyPaymentDetector</text>
</g>
<!-- A11&#45;&gt;A18 -->
<g id="edge13" class="edge">
<title>A11&#45;&gt;A18</title>
<path fill="none" stroke="#000000" d="M926.337,-247.4762C926.337,-234.5329 926.337,-219.6086 926.337,-208.2121"/>
<polygon fill="none" stroke="#000000" points="922.8371,-247.7616 926.337,-257.7616 929.8371,-247.7616 922.8371,-247.7616"/>
</g>
<!-- A20 -->
<g id="node21" class="node">
<title>A20</title>
<polygon fill="none" stroke="#000000" points="1188.9325,-208 1025.7415,-208 1025.7415,-172 1188.9325,-172 1188.9325,-208"/>
<text text-anchor="middle" x="1107.337" y="-187" font-family="Helvetica,sans-Serif" font-size="10.00" fill="#000000">EthInputDataPaymentDetector</text>
</g>
<!-- A11&#45;&gt;A20 -->
<g id="edge15" class="edge">
<title>A11&#45;&gt;A20</title>
<path fill="none" stroke="#000000" d="M973.6651,-253.5126C1003.5278,-239.3237 1041.581,-221.2432 1069.4434,-208.0047"/>
<polygon fill="none" stroke="#000000" points="971.8108,-250.5186 964.2805,-257.9716 974.8149,-256.8412 971.8108,-250.5186"/>
</g>
<!-- A12&#45;&gt;A4 -->
<g id="edge11" class="edge">
<title>A12&#45;&gt;A4</title>
<path fill="none" stroke="#000000" d="M699.3215,-167.6967C668.0787,-153.4803 628.1253,-135.3005 598.9054,-122.0047"/>
<polygon fill="none" stroke="#000000" points="698.1648,-171.0156 708.7164,-171.9716 701.064,-164.6442 698.1648,-171.0156"/>
</g>
<!-- A12&#45;&gt;A7 -->
<g id="edge5" class="edge">
<title>A12&#45;&gt;A7</title>
<path fill="none" stroke="#000000" d="M748.337,-161.4762C748.337,-148.5329 748.337,-133.6086 748.337,-122.2121"/>
<polygon fill="none" stroke="#000000" points="744.8371,-161.7616 748.337,-171.7616 751.8371,-161.7616 744.8371,-161.7616"/>
</g>
<!-- A21 -->
<g id="node22" class="node">
<title>A21</title>
<polygon fill="none" stroke="#000000" points="984.865,-122 821.809,-122 821.809,-86 984.865,-86 984.865,-122"/>
<text text-anchor="middle" x="903.337" y="-101" font-family="Helvetica,sans-Serif" font-size="10.00" fill="#000000">EthFeeProxyPaymentDetector</text>
</g>
<!-- A12&#45;&gt;A21 -->
<g id="edge16" class="edge">
<title>A12&#45;&gt;A21</title>
<path fill="none" stroke="#000000" d="M789.8665,-166.9578C815.2846,-152.8549 847.3365,-135.0712 870.8867,-122.0047"/>
<polygon fill="none" stroke="#000000" points="787.8762,-164.0594 780.8301,-171.9716 791.2724,-170.1804 787.8762,-164.0594"/>
</g>
</g>
</svg>
